<?xml version="1.0" encoding="iso-8859-1"?>
<!-- Uploaded to: SVG Repo, www.svgrepo.com, Generator: SVG Repo Mixer Tools -->
<!DOCTYPE svg PUBLIC "-//W3C//DTD SVG 1.1//EN" "http://www.w3.org/Graphics/SVG/1.1/DTD/svg11.dtd">
<svg fill="#000000" version="1.1" id="Capa_1" xmlns="http://www.w3.org/2000/svg" xmlns:xlink="http://www.w3.org/1999/xlink" 
	 width="800px" height="800px" viewBox="0 0 598.494 598.494"
	 xml:space="preserve">
<g>
	<g>
		<path d="M59.047,597.992c3.737,0,7.5-0.361,11.188-1.074l120.768-23.357c34.97,13.956,71.913,21.026,109.947,21.026
			c1.03,0,2.061-0.006,3.093-0.016c39.924-0.408,78.635-8.656,115.061-24.514c35.13-15.294,66.625-36.977,93.609-64.447
			c26.981-27.467,48.103-59.342,62.774-94.741c15.212-36.698,22.782-75.546,22.499-115.465
			c-0.28-39.679-8.271-78.178-23.747-114.424c-14.947-35.005-36.225-66.455-63.243-93.474
			c-27.018-27.019-58.466-48.297-93.472-63.246C381.278,8.783,342.781,0.792,303.101,0.509c-0.708-0.005-1.433-0.007-2.137-0.007
			c-39.699,0-78.3,7.768-114.732,23.086c-35.161,14.784-66.805,35.942-94.053,62.885c-27.262,26.957-48.774,58.372-63.941,93.374
			C12.512,216.14,4.331,254.695,3.924,294.443c-0.401,39.118,6.664,77.107,21.009,113.048L1.576,528.263
			c-3.333,17.233,1.157,34.875,12.318,48.402C25.078,590.219,41.536,597.992,59.047,597.992z M43.637,536.397l24.908-128.785
			c0.6-3.106,0.251-6.321-1.005-9.226c-13.707-31.682-21.154-66.702-20.778-103.504C48.186,155.745,162.04,43.341,300.964,43.341
			c0.604,0,1.227,0.002,1.833,0.007c138.931,0.988,251.366,113.427,252.35,252.36c0.989,139.745-111.798,254.598-251.539,256.025
			c-0.888,0.009-1.772,0.014-2.658,0.014c-35.829,0-69.925-7.416-100.841-20.791c-1.979-0.856-4.103-1.291-6.238-1.291
			c-0.998,0-1.998,0.095-2.987,0.286L62.098,554.858c-1.032,0.199-2.05,0.294-3.05,0.294
			C49.436,555.152,41.718,546.32,43.637,536.397z"/>
		<path d="M59.047,598.492c-17.662,0-34.26-7.84-45.539-21.509C2.252,563.34-2.276,545.548,1.085,528.168L24.415,407.54
			C10.086,371.59,3.023,333.536,3.424,294.438c0.408-39.814,8.603-78.435,24.355-114.79c15.192-35.061,36.741-66.529,64.048-93.531
			c27.295-26.99,58.992-48.183,94.21-62.991C222.533,7.782,261.2,0.002,300.964,0.002c0.705,0,1.431,0.002,2.141,0.007
			c39.745,0.283,78.308,8.288,114.615,23.792c35.065,14.974,66.566,36.289,93.629,63.353c27.062,27.062,48.376,58.564,63.35,93.631
			c15.503,36.309,23.507,74.871,23.787,114.617c0.283,39.985-7.299,78.898-22.537,115.66c-14.695,35.457-35.852,67.386-62.88,94.9
			c-27.028,27.516-58.575,49.234-93.767,64.555c-36.488,15.885-75.266,24.146-115.255,24.556
			c-39.115,0.359-77.164-6.673-113.093-20.992L70.33,597.409C66.612,598.128,62.816,598.492,59.047,598.492z M300.964,1.002
			c-39.63,0-78.167,7.754-114.539,23.047c-35.101,14.758-66.691,35.88-93.895,62.78c-27.216,26.911-48.692,58.274-63.833,93.217
			c-15.7,36.231-23.867,74.722-24.273,114.403c-0.4,39.017,6.657,76.988,20.974,112.857l0.054,0.137l-0.028,0.144L2.067,528.357
			c-3.304,17.086,1.147,34.577,12.213,47.989c11.088,13.438,27.405,21.146,44.767,21.146c3.705,0,7.437-0.358,11.093-1.065
			l120.912-23.385l0.136,0.054c35.846,14.307,73.801,21.334,112.849,20.976c39.854-0.407,78.501-8.642,114.866-24.472
			c35.072-15.27,66.514-36.916,93.452-64.34c26.938-27.422,48.022-59.244,62.669-94.582c15.187-36.638,22.744-75.42,22.461-115.27
			c-0.28-39.612-8.256-78.045-23.707-114.231c-14.923-34.949-36.165-66.345-63.137-93.316
			c-26.972-26.973-58.367-48.216-93.314-63.14C381.143,9.269,342.71,1.291,303.097,1.009C302.391,1.004,301.667,1.002,300.964,1.002
			z M59.048,555.652c-4.829,0-9.383-2.163-12.495-5.935c-3.09-3.744-4.332-8.634-3.407-13.415l24.908-128.785
			c0.583-3.022,0.247-6.111-0.974-8.933c-14.183-32.781-21.187-67.674-20.819-103.708c0.69-67.397,27.57-130.718,75.688-178.298
			c48.088-47.551,111.664-73.738,179.016-73.738c0.605,0,1.229,0.002,1.837,0.007c67.325,0.479,130.631,26.972,178.255,74.597
			c47.624,47.626,74.114,110.933,74.591,178.259c0.991,140.02-112.07,255.099-252.034,256.529
			c-36.05,0.358-70.943-6.646-103.703-20.818c-2.804-1.214-5.934-1.556-8.932-0.973L62.192,555.35
			C61.151,555.551,60.093,555.652,59.048,555.652z M300.964,43.841c-67.087,0-130.413,26.085-178.312,73.449
			c-47.929,47.394-74.703,110.465-75.391,177.597c-0.367,35.893,6.61,70.648,20.737,103.301c1.301,3.006,1.66,6.298,1.037,9.519
			L44.127,536.492c-0.868,4.487,0.297,9.076,3.196,12.589c2.921,3.541,7.195,5.571,11.724,5.571c0.981,0,1.976-0.096,2.955-0.285
			l128.786-24.907c3.193-0.617,6.529-0.257,9.519,1.037c32.63,14.117,67.385,21.091,103.296,20.736
			c139.413-1.425,252.031-116.051,251.044-255.522c-0.475-67.062-26.861-130.12-74.298-177.559
			c-47.438-47.438-110.494-73.827-177.556-74.304C302.189,43.844,301.568,43.841,300.964,43.841z"/>
	</g>
	<g>
		<path d="M454.696,362.953c35.127,0,63.706-28.578,63.706-63.706c0-35.127-28.579-63.706-63.706-63.706
			c-35.128,0-63.706,28.579-63.706,63.706C390.99,334.375,419.568,362.953,454.696,362.953z M454.696,278.381
			c11.523,0,20.866,9.342,20.866,20.866c0,11.524-9.343,20.866-20.866,20.866c-11.524,0-20.866-9.342-20.866-20.866
			S443.171,278.381,454.696,278.381z"/>
		<path d="M454.696,363.453c-35.403,0-64.206-28.803-64.206-64.206s28.803-64.206,64.206-64.206s64.206,28.803,64.206,64.206
			S490.099,363.453,454.696,363.453z M454.696,236.041c-34.852,0-63.206,28.354-63.206,63.206c0,34.852,28.354,63.206,63.206,63.206
			s63.206-28.354,63.206-63.206C517.902,264.395,489.547,236.041,454.696,236.041z M454.696,320.613
			c-11.781,0-21.366-9.585-21.366-21.366s9.585-21.366,21.366-21.366s21.366,9.585,21.366,21.366S466.477,320.613,454.696,320.613z
			 M454.696,278.881c-11.229,0-20.366,9.136-20.366,20.366c0,11.229,9.137,20.366,20.366,20.366s20.366-9.137,20.366-20.366
			C475.062,288.017,465.925,278.881,454.696,278.881z"/>
	</g>
	<g>
		<path d="M299.248,362.953c35.128,0,63.706-28.578,63.706-63.706c0-35.127-28.578-63.706-63.706-63.706
			c-35.127,0-63.706,28.579-63.706,63.706C235.542,334.375,264.12,362.953,299.248,362.953z M299.248,278.381
			c11.524,0,20.866,9.342,20.866,20.866c0,11.524-9.342,20.866-20.866,20.866c-11.524,0-20.866-9.342-20.866-20.866
			S287.724,278.381,299.248,278.381z"/>
		<path d="M299.248,363.453c-35.403,0-64.206-28.803-64.206-64.206s28.803-64.206,64.206-64.206s64.206,28.803,64.206,64.206
			S334.651,363.453,299.248,363.453z M299.248,236.041c-34.852,0-63.206,28.354-63.206,63.206c0,34.852,28.354,63.206,63.206,63.206
			c34.852,0,63.206-28.354,63.206-63.206C362.454,264.395,334.099,236.041,299.248,236.041z M299.248,320.613
			c-11.781,0-21.366-9.585-21.366-21.366s9.585-21.366,21.366-21.366s21.366,9.585,21.366,21.366S311.029,320.613,299.248,320.613z
			 M299.248,278.881c-11.23,0-20.366,9.136-20.366,20.366c0,11.229,9.136,20.366,20.366,20.366c11.229,0,20.366-9.137,20.366-20.366
			C319.614,288.017,310.477,278.881,299.248,278.881z"/>
	</g>
	<g>
		<path d="M143.799,362.953c35.128,0,63.707-28.578,63.707-63.706c0-35.127-28.579-63.706-63.707-63.706
			c-35.127,0-63.706,28.579-63.706,63.706C80.093,334.375,108.672,362.953,143.799,362.953z M143.799,278.381
			c11.524,0,20.866,9.342,20.866,20.866c0,11.524-9.342,20.866-20.866,20.866c-11.524,0-20.866-9.342-20.866-20.866
			S132.275,278.381,143.799,278.381z"/>
		<path d="M143.799,363.453c-35.403,0-64.206-28.803-64.206-64.206s28.803-64.206,64.206-64.206
			c35.404,0,64.207,28.803,64.207,64.206S179.203,363.453,143.799,363.453z M143.799,236.041c-34.852,0-63.206,28.354-63.206,63.206
			c0,34.852,28.354,63.206,63.206,63.206s63.207-28.354,63.207-63.206C207.006,264.395,178.651,236.041,143.799,236.041z
			 M143.799,320.613c-11.781,0-21.366-9.585-21.366-21.366s9.584-21.366,21.366-21.366s21.366,9.585,21.366,21.366
			S155.581,320.613,143.799,320.613z M143.799,278.881c-11.229,0-20.366,9.136-20.366,20.366c0,11.229,9.136,20.366,20.366,20.366
			c11.23,0,20.366-9.137,20.366-20.366C164.166,288.017,155.029,278.881,143.799,278.881z"/>
	</g>
</g>
</svg>